<svg xmlns="http://www.w3.org/2000/svg" width="224.591" height="47.596" viewBox="0 0 224.591 47.596">
  <g id="Group_13101" data-name="Group 13101" transform="translate(-404 -23)">
    <g id="XMLID_15_" transform="translate(404 23)">
      <g id="XMLID_283_" transform="translate(0 17.766)">
        <g id="XMLID_311_" transform="translate(163.941 0.055)">
          <path id="XMLID_321_" d="M331.442,482.674V477.4H317.268a5.4,5.4,0,0,0-4.065,1.7,5.6,5.6,0,0,0-1.7,4.065v5.988a5.479,5.479,0,0,0,1.7,4.065,5.4,5.4,0,0,0,4.065,1.7H324.3a1.907,1.907,0,0,1,1.373.549,1.822,1.822,0,0,1,.549,1.373V500.8l2.472,1.264h-17.14v5.109h14.119a5.4,5.4,0,0,0,4.065-1.7,5.479,5.479,0,0,0,1.7-4.065v-6.043a5.479,5.479,0,0,0-1.7-4.065,5.4,5.4,0,0,0-4.065-1.7h-7.032a1.877,1.877,0,0,1-1.923-1.923v-5Z" transform="translate(-311.5 -477.4)" fill="#39c1f1"/>
          <path id="XMLID_319_" d="M386.16,492.87a1.093,1.093,0,0,1,.385-.879,1.433,1.433,0,0,1,.934-.385h4.889V488.2H386.6a5.066,5.066,0,0,0-5,5v18.678h4.615V501.385h5.274v-3.626h-7.032l1.813-.879v-4.01Z" transform="translate(-343.09 -482.267)" fill="#39c1f1"/>
          <path id="XMLID_317_" d="M409.882,508.232a1.5,1.5,0,0,1-1.044-.44,1.407,1.407,0,0,1-.439-1.044V499h4.34v-3.955H408.4V488.4h-5v17.964a5.1,5.1,0,0,0,1.593,3.846,4.985,4.985,0,0,0,3.791,1.593h4.78v-3.681h-3.681Z" transform="translate(-352.913 -482.357)" fill="#39c1f1"/>
          <g id="XMLID_312_" transform="translate(22.084 12.91)">
            <path id="XMLID_313_" d="M361.753,500.9h-5.768a4.291,4.291,0,0,0-4.285,4.285v8.241a4.291,4.291,0,0,0,4.285,4.285h5.768a4.291,4.291,0,0,0,4.285-4.285v-8.241A4.291,4.291,0,0,0,361.753,500.9Zm.385,12.526a.413.413,0,0,1-.385.385h-7.8l1.593-.824v-7.8a.376.376,0,0,1,.385-.385h5.823a.376.376,0,0,1,.385.385Z" transform="translate(-351.7 -500.9)" fill="#39c1f1"/>
          </g>
        </g>
        <g id="XMLID_284_" transform="translate(0 0)">
          <g id="XMLID_286_">
            <path id="XMLID_297_" d="M179.783,488.872h-12.69l.055-3.186a2.344,2.344,0,0,1,.385-1.319,4.2,4.2,0,0,1,.494-.494,1.246,1.246,0,0,1,.714-.165h10.877l-.055-6.208H167.532a17.36,17.36,0,0,0-3.022.22,4.565,4.565,0,0,0-2.362,1.154,4.681,4.681,0,0,0-1.373,2.472,16.039,16.039,0,0,0-.275,2.967v15.822c0,.6,0,1.209.055,1.758a11.076,11.076,0,0,0,.275,1.538,4.687,4.687,0,0,0,.714,1.373,4.847,4.847,0,0,0,1.209,1.154,6.656,6.656,0,0,0,1.593.879,7.453,7.453,0,0,0,1.593.33,15.978,15.978,0,0,0,1.648.055c.549-.055,1.154-.055,1.813-.055h10.273v-6.428h-10a6.309,6.309,0,0,0-1.044.055,1.348,1.348,0,0,1-.879-.33,1.539,1.539,0,0,1-.659-1.264l-.055-3.516h12.69v-6.812Z" transform="translate(-72.327 -477.39)" fill="#183560"/>
            <path id="XMLID_296_" d="M20.931,481.42a4.549,4.549,0,0,0-1.483-2.582,4.982,4.982,0,0,0-2.2-1.319,11.387,11.387,0,0,0-2.527-.22H7.307c-.6,0-1.154,0-1.7.055a6.926,6.926,0,0,0-1.538.22,5.1,5.1,0,0,0-1.428.549,4.364,4.364,0,0,0-1.209,1.044,6.118,6.118,0,0,0-.879,1.318A13.252,13.252,0,0,0,.11,481.86,6.749,6.749,0,0,0,0,483.343v23.733H6.592v-22.03a.814.814,0,0,1,.055-.384,3.142,3.142,0,0,1,.22-.385,1.207,1.207,0,0,1,.989-.44h5.109a3.375,3.375,0,0,1,.769.055,1.044,1.044,0,0,1,.6.385,1.386,1.386,0,0,1,.33.934v5.109H9.394v6.537h5.274v10.218h6.537V484.826A13.171,13.171,0,0,0,20.931,481.42Z" transform="translate(0 -477.3)" fill="#183560"/>
            <path id="XMLID_292_" d="M67.741,480.761a6.78,6.78,0,0,0-1.538-2.143,5.13,5.13,0,0,0-2.088-1.1,10.668,10.668,0,0,0-2.417-.22h-15v29.721H61.423a13.564,13.564,0,0,0,3.131-.385,5.079,5.079,0,0,0,2.472-1.813,5.17,5.17,0,0,0,.879-1.593,5.724,5.724,0,0,0,.275-1.813V483.4A7.343,7.343,0,0,0,67.741,480.761Zm-6.318,18.4a1.079,1.079,0,0,1-.494.934,2.236,2.236,0,0,1-.6.33,3.129,3.129,0,0,1-.714.055H53.237V483.892l-2.692-3.022,2.362,1.209,3.626,1.648h3.131a2.005,2.005,0,0,1,1.318.439,1.5,1.5,0,0,1,.494,1.154v13.844Z" transform="translate(-21.045 -477.3)" fill="#183560"/>
            <path id="XMLID_288_" d="M113.741,480.761a6.012,6.012,0,0,0-1.538-2.143,5.5,5.5,0,0,0-2.088-1.1,10.668,10.668,0,0,0-2.417-.22h-15v29.721h14.723a13.564,13.564,0,0,0,3.131-.385,4.847,4.847,0,0,0,2.472-1.813,5.171,5.171,0,0,0,.879-1.593,5.724,5.724,0,0,0,.275-1.813V483.4A6.316,6.316,0,0,0,113.741,480.761Zm-6.263,18.4a1.079,1.079,0,0,1-.494.934,1.309,1.309,0,0,1-.6.33,3.375,3.375,0,0,1-.769.055H99.237V483.892L96.6,480.871l2.362,1.209,3.626,1.648h3.131a1.959,1.959,0,0,1,1.264.439,1.5,1.5,0,0,1,.494,1.154Z" transform="translate(-41.774 -477.3)" fill="#183560"/>
            <rect id="XMLID_287_" width="6.373" height="29.721" transform="translate(77.241)" fill="#183560"/>
          </g>
        </g>
      </g>
      <g id="XMLID_16_" transform="translate(110.542)">
        <g id="XMLID_274_" transform="translate(5.868)">
          <path id="XMLID_275_" d="M245.645,451.16a9.4,9.4,0,0,0-.494-1.648,5.484,5.484,0,0,0-.439-.769,5.544,5.544,0,0,0-2.2-1.7,9.736,9.736,0,0,0-6.812-.549,18.958,18.958,0,0,0-5.6,3.186c-1.7,1.264-3.351,2.472-5.054,3.736l-2.472,1.813a17.151,17.151,0,0,0-2.472,1.868c.934.165,2.033.055,2.967.22a27.75,27.75,0,0,1,3.076.659,48.705,48.705,0,0,1,5.988,2.143c4.45,1.758,8.9,3.516,13.35,5.219C245.645,460.664,246.689,455.83,245.645,451.16Zm-12.69,2.033a.5.5,0,0,1,.385.165l1.264-1.044a.415.415,0,0,1-.055-.22.659.659,0,1,1,1.318,0v.165l1.1.659a.624.624,0,0,1,.439-.165.781.781,0,0,1,.33.11l1.318-1.264a.781.781,0,0,1-.11-.33.668.668,0,0,1,.659-.659.659.659,0,1,1,0,1.318.781.781,0,0,1-.33-.11l-1.318,1.263a.781.781,0,0,1,.11.33.668.668,0,0,1-.659.659.635.635,0,0,1-.659-.659v-.165l-1.1-.659a.672.672,0,0,1-.494.165.5.5,0,0,1-.385-.165l-1.264.989a.5.5,0,0,1,.055.275.659.659,0,1,1-1.318,0A.717.717,0,0,1,232.955,453.193Zm.934,5.549h-1.758v-3.186h1.7v3.186Zm2.2,0h-1.758v-5h1.758Zm2.2,0h-1.758v-3.681h1.758Zm2.2,0h-1.758v-5.878h1.758Z" transform="translate(-220.1 -446.114)" fill="#537ebf"/>
        </g>
        <path id="XMLID_273_" d="M238.679,517.239a.439.439,0,1,1-.439-.439A.433.433,0,0,1,238.679,517.239Z" transform="translate(-222.208 -477.334)" fill="#43bead"/>
        <path id="XMLID_269_" d="M238.806,515.773a.817.817,0,0,1-.494-.934.5.5,0,0,0-.165-.385.607.607,0,0,0-.44,0,.928.928,0,0,1-.549.165.767.767,0,0,1-.494-.165.33.33,0,0,0-.22-.055.2.2,0,0,0-.165.055c-.165.11-.22.22-.165.385a.924.924,0,0,1-.494.934.3.3,0,0,0-.22.33.371.371,0,0,0,.22.33.816.816,0,0,1,.494.934.5.5,0,0,0,.165.385c.165.11.275.055.44,0a.907.907,0,0,1,1.044,0,.332.332,0,0,0,.44,0,.284.284,0,0,0,.165-.385.924.924,0,0,1,.494-.934.3.3,0,0,0,.22-.33A.732.732,0,0,0,238.806,515.773Zm-1.648,1.154a.845.845,0,0,1-.824-.824.809.809,0,0,1,.824-.824.826.826,0,0,1,0,1.648Z" transform="translate(-221.127 -476.253)" fill="#43bead"/>
        <path id="XMLID_262_" d="M245.732,513.58c-3.571-2.362-5.823-6.263-8.076-9.889-2.417-3.9-5-7.746-7.526-11.592-1.593,2.142-3.461,4.065-5.109,6.153a21.622,21.622,0,0,0-3.9,6.922,5.818,5.818,0,0,0-.33,2.143c.165,2.088,2.2,4.01,3.9,5.054,1.923,1.209,4.34,1.373,6.592,1.373h1.1c4.56,0,9.119-.055,13.679-.055A.465.465,0,0,1,245.732,513.58Zm-19.5-7.416h0a4.327,4.327,0,0,1,4.34-4.395,4.834,4.834,0,0,1,.934.11.3.3,0,0,1,.22.33.23.23,0,0,1-.33.165,4.241,4.241,0,0,0-.824-.11,3.857,3.857,0,0,0-3.846,3.845.26.26,0,0,1-.275.275A.236.236,0,0,1,226.23,506.164Zm6.537,3.681a4.4,4.4,0,0,1-2.2.6,4.253,4.253,0,0,1-4.12-3.021.23.23,0,0,1,.165-.33.267.267,0,0,1,.33.165,3.841,3.841,0,0,0,3.681,2.692,3.407,3.407,0,0,0,1.923-.549.22.22,0,0,1,.33.11A.264.264,0,0,1,232.767,509.844Zm-.33-2.912a.368.368,0,0,0-.22.385.858.858,0,0,1-.439.824.928.928,0,0,1-.989-.055.334.334,0,0,0-.439,0,.928.928,0,0,1-.549.165,1.292,1.292,0,0,1-.44-.11.775.775,0,0,1-.439-.824.368.368,0,0,0-.22-.385.934.934,0,0,1,0-1.648.368.368,0,0,0,.22-.385.892.892,0,0,1,.439-.879.923.923,0,0,1,.989.055.334.334,0,0,0,.439,0h0a.832.832,0,0,1,.934-.055.811.811,0,0,1,.439.879.368.368,0,0,0,.22.385.852.852,0,0,1,.494.824A.775.775,0,0,1,232.438,506.933Zm1.373,2.088c-.055.055-.11.11-.165.11a.2.2,0,0,1-.165-.055.206.206,0,0,1,0-.33,3.8,3.8,0,0,0,.989-2.582,3.994,3.994,0,0,0-1.923-3.351.246.246,0,1,1,.22-.44,4.3,4.3,0,0,1,2.2,3.791A4.565,4.565,0,0,1,233.811,509.02Z" transform="translate(-214.539 -466.204)" fill="#43bead"/>
        <path id="XMLID_77_" d="M266.291,500.545h-8.515a.175.175,0,0,0-.165.165v.659h8.9v-.659C266.456,500.655,266.4,500.545,266.291,500.545Zm-2.033.659a.146.146,0,0,1-.165-.165.165.165,0,1,1,.33,0A.146.146,0,0,1,264.258,501.2Zm.659,0a.146.146,0,0,1-.165-.165.165.165,0,0,1,.33,0C265.137,501.149,265.027,501.2,264.917,501.2Zm.714,0a.146.146,0,0,1-.165-.165.165.165,0,0,1,.33,0A.146.146,0,0,1,265.632,501.2Zm-8.076.6v5.384a.175.175,0,0,0,.165.165h8.515a.175.175,0,0,0,.165-.165v-5.384Zm3.131,3.9a.266.266,0,0,1,0,.385.275.275,0,0,1-.33,0l-1.373-1.373a.419.419,0,0,1-.11-.275.285.285,0,0,1,.11-.22l1.373-1.373a.272.272,0,0,1,.385.385l-1.264,1.209Zm2.2-2.582-1.209,2.967a.294.294,0,0,1-.22.165h-.11a.392.392,0,0,1-.165-.33l1.209-2.967a.391.391,0,0,1,.33-.165C262.885,502.8,262.94,502.962,262.885,503.127Zm2.307,1.648-1.373,1.373a.275.275,0,0,1-.33,0,.265.265,0,0,1,0-.385l1.209-1.209-1.209-1.209a.272.272,0,1,1,.385-.385l1.373,1.373a.417.417,0,0,1,.11.22C265.3,504.61,265.3,504.665,265.192,504.775Zm-7.636-2.967v5.384a.175.175,0,0,0,.165.165h8.515a.175.175,0,0,0,.165-.165v-5.384Zm3.131,3.9a.266.266,0,0,1,0,.385.275.275,0,0,1-.33,0l-1.373-1.373a.419.419,0,0,1-.11-.275.285.285,0,0,1,.11-.22l1.373-1.373a.272.272,0,0,1,.385.385l-1.264,1.209Zm2.2-2.582-1.209,2.967a.294.294,0,0,1-.22.165h-.11a.392.392,0,0,1-.165-.33l1.209-2.967a.391.391,0,0,1,.33-.165C262.885,502.8,262.94,502.962,262.885,503.127Zm2.307,1.648-1.373,1.373a.275.275,0,0,1-.33,0,.265.265,0,0,1,0-.385l1.209-1.209-1.209-1.209a.272.272,0,1,1,.385-.385l1.373,1.373a.417.417,0,0,1,.11.22C265.3,504.61,265.3,504.665,265.192,504.775Zm1.1-4.23h-8.515a.175.175,0,0,0-.165.165v.659h8.9v-.659C266.456,500.655,266.4,500.545,266.291,500.545Zm-2.033.659a.146.146,0,0,1-.165-.165.165.165,0,1,1,.33,0A.146.146,0,0,1,264.258,501.2Zm.659,0a.146.146,0,0,1-.165-.165.165.165,0,0,1,.33,0C265.137,501.149,265.027,501.2,264.917,501.2Zm.714,0a.146.146,0,0,1-.165-.165.165.165,0,0,1,.33,0A.146.146,0,0,1,265.632,501.2Zm.659-.659h-8.515a.175.175,0,0,0-.165.165v.659h8.9v-.659C266.456,500.655,266.4,500.545,266.291,500.545Zm-2.033.659a.146.146,0,0,1-.165-.165.165.165,0,1,1,.33,0A.146.146,0,0,1,264.258,501.2Zm.659,0a.146.146,0,0,1-.165-.165.165.165,0,0,1,.33,0C265.137,501.149,265.027,501.2,264.917,501.2Zm.714,0a.146.146,0,0,1-.165-.165.165.165,0,0,1,.33,0A.146.146,0,0,1,265.632,501.2Zm-8.076.6v5.384a.175.175,0,0,0,.165.165h8.515a.175.175,0,0,0,.165-.165v-5.384Zm3.131,3.9a.266.266,0,0,1,0,.385.275.275,0,0,1-.33,0l-1.373-1.373a.419.419,0,0,1-.11-.275.285.285,0,0,1,.11-.22l1.373-1.373a.272.272,0,0,1,.385.385l-1.264,1.209Zm2.2-2.582-1.209,2.967a.294.294,0,0,1-.22.165h-.11a.392.392,0,0,1-.165-.33l1.209-2.967a.391.391,0,0,1,.33-.165C262.885,502.8,262.94,502.962,262.885,503.127Zm2.307,1.648-1.373,1.373a.275.275,0,0,1-.33,0,.265.265,0,0,1,0-.385l1.209-1.209-1.209-1.209a.272.272,0,1,1,.385-.385l1.373,1.373a.417.417,0,0,1,.11.22C265.3,504.61,265.3,504.665,265.192,504.775Zm-7.636-2.967v5.384a.175.175,0,0,0,.165.165h8.515a.175.175,0,0,0,.165-.165v-5.384Zm3.131,3.9a.266.266,0,0,1,0,.385.275.275,0,0,1-.33,0l-1.373-1.373a.419.419,0,0,1-.11-.275.285.285,0,0,1,.11-.22l1.373-1.373a.272.272,0,0,1,.385.385l-1.264,1.209Zm2.2-2.582-1.209,2.967a.294.294,0,0,1-.22.165h-.11a.392.392,0,0,1-.165-.33l1.209-2.967a.391.391,0,0,1,.33-.165C262.885,502.8,262.94,502.962,262.885,503.127Zm2.307,1.648-1.373,1.373a.275.275,0,0,1-.33,0,.265.265,0,0,1,0-.385l1.209-1.209-1.209-1.209a.272.272,0,1,1,.385-.385l1.373,1.373a.417.417,0,0,1,.11.22C265.3,504.61,265.3,504.665,265.192,504.775Zm1.1-4.23h-8.515a.175.175,0,0,0-.165.165v.659h8.9v-.659C266.456,500.655,266.4,500.545,266.291,500.545Zm-2.033.659a.146.146,0,0,1-.165-.165.165.165,0,1,1,.33,0A.146.146,0,0,1,264.258,501.2Zm.659,0a.146.146,0,0,1-.165-.165.165.165,0,0,1,.33,0C265.137,501.149,265.027,501.2,264.917,501.2Zm.714,0a.146.146,0,0,1-.165-.165.165.165,0,0,1,.33,0A.146.146,0,0,1,265.632,501.2Zm.659-.659h-8.515a.175.175,0,0,0-.165.165v.659h8.9v-.659C266.456,500.655,266.4,500.545,266.291,500.545Zm-2.033.659a.146.146,0,0,1-.165-.165.165.165,0,1,1,.33,0A.146.146,0,0,1,264.258,501.2Zm.659,0a.146.146,0,0,1-.165-.165.165.165,0,0,1,.33,0C265.137,501.149,265.027,501.2,264.917,501.2Zm.714,0a.146.146,0,0,1-.165-.165.165.165,0,0,1,.33,0A.146.146,0,0,1,265.632,501.2Zm-8.076.6v5.384a.175.175,0,0,0,.165.165h8.515a.175.175,0,0,0,.165-.165v-5.384Zm3.131,3.9a.266.266,0,0,1,0,.385.275.275,0,0,1-.33,0l-1.373-1.373a.419.419,0,0,1-.11-.275.285.285,0,0,1,.11-.22l1.373-1.373a.272.272,0,0,1,.385.385l-1.264,1.209Zm2.2-2.582-1.209,2.967a.294.294,0,0,1-.22.165h-.11a.392.392,0,0,1-.165-.33l1.209-2.967a.391.391,0,0,1,.33-.165C262.885,502.8,262.94,502.962,262.885,503.127Zm2.307,1.648-1.373,1.373a.275.275,0,0,1-.33,0,.265.265,0,0,1,0-.385l1.209-1.209-1.209-1.209a.272.272,0,1,1,.385-.385l1.373,1.373a.417.417,0,0,1,.11.22C265.3,504.61,265.3,504.665,265.192,504.775Zm-7.636-2.967v5.384a.175.175,0,0,0,.165.165h8.515a.175.175,0,0,0,.165-.165v-5.384Zm3.131,3.9a.266.266,0,0,1,0,.385.275.275,0,0,1-.33,0l-1.373-1.373a.419.419,0,0,1-.11-.275.285.285,0,0,1,.11-.22l1.373-1.373a.272.272,0,0,1,.385.385l-1.264,1.209Zm2.2-2.582-1.209,2.967a.294.294,0,0,1-.22.165h-.11a.392.392,0,0,1-.165-.33l1.209-2.967a.391.391,0,0,1,.33-.165C262.885,502.8,262.94,502.962,262.885,503.127Zm2.307,1.648-1.373,1.373a.275.275,0,0,1-.33,0,.265.265,0,0,1,0-.385l1.209-1.209-1.209-1.209a.272.272,0,1,1,.385-.385l1.373,1.373a.417.417,0,0,1,.11.22C265.3,504.61,265.3,504.665,265.192,504.775Zm1.1-4.23h-8.515a.175.175,0,0,0-.165.165v.659h8.9v-.659C266.456,500.655,266.4,500.545,266.291,500.545Zm-2.033.659a.146.146,0,0,1-.165-.165.165.165,0,1,1,.33,0A.146.146,0,0,1,264.258,501.2Zm.659,0a.146.146,0,0,1-.165-.165.165.165,0,0,1,.33,0C265.137,501.149,265.027,501.2,264.917,501.2Zm.714,0a.146.146,0,0,1-.165-.165.165.165,0,0,1,.33,0A.146.146,0,0,1,265.632,501.2Zm.659-.659h-8.515a.175.175,0,0,0-.165.165v.659h8.9v-.659C266.456,500.655,266.4,500.545,266.291,500.545Zm-2.033.659a.146.146,0,0,1-.165-.165.165.165,0,1,1,.33,0A.146.146,0,0,1,264.258,501.2Zm.659,0a.146.146,0,0,1-.165-.165.165.165,0,0,1,.33,0C265.137,501.149,265.027,501.2,264.917,501.2Zm.714,0a.146.146,0,0,1-.165-.165.165.165,0,0,1,.33,0A.146.146,0,0,1,265.632,501.2Zm-8.076.6v5.384a.175.175,0,0,0,.165.165h8.515a.175.175,0,0,0,.165-.165v-5.384Zm3.131,3.9a.266.266,0,0,1,0,.385.275.275,0,0,1-.33,0l-1.373-1.373a.419.419,0,0,1-.11-.275.285.285,0,0,1,.11-.22l1.373-1.373a.272.272,0,0,1,.385.385l-1.264,1.209Zm2.2-2.582-1.209,2.967a.294.294,0,0,1-.22.165h-.11a.392.392,0,0,1-.165-.33l1.209-2.967a.391.391,0,0,1,.33-.165C262.885,502.8,262.94,502.962,262.885,503.127Zm2.307,1.648-1.373,1.373a.275.275,0,0,1-.33,0,.265.265,0,0,1,0-.385l1.209-1.209-1.209-1.209a.272.272,0,1,1,.385-.385l1.373,1.373a.417.417,0,0,1,.11.22C265.3,504.61,265.3,504.665,265.192,504.775Zm-7.636,2.362a.175.175,0,0,0,.165.165h8.515a.175.175,0,0,0,.165-.165v-5.384h-8.845Zm5.933-3.9a.272.272,0,1,1,.385-.385l1.373,1.373a.416.416,0,0,1,.11.22c0,.11-.055.165-.11.275l-1.373,1.373a.275.275,0,0,1-.33,0,.266.266,0,0,1,0-.385l1.209-1.209Zm-1.1-.33a.392.392,0,0,1,.33-.165c.165.055.165.22.165.33l-1.209,2.967a.294.294,0,0,1-.22.165h-.11a.391.391,0,0,1-.165-.33Zm-3.406,1.319,1.373-1.373a.272.272,0,0,1,.385.385l-1.264,1.209,1.264,1.209a.265.265,0,0,1,0,.384.274.274,0,0,1-.33,0l-1.373-1.373a.42.42,0,0,1-.11-.275C258.874,504.39,258.929,504.28,258.984,504.226Zm7.307-3.681h-8.515a.175.175,0,0,0-.165.165v.659h8.9v-.659C266.456,500.655,266.4,500.545,266.291,500.545Zm-2.033.659a.146.146,0,0,1-.165-.165.165.165,0,1,1,.33,0A.146.146,0,0,1,264.258,501.2Zm.659,0a.146.146,0,0,1-.165-.165.165.165,0,0,1,.33,0C265.137,501.149,265.027,501.2,264.917,501.2Zm.714,0a.146.146,0,0,1-.165-.165.165.165,0,0,1,.33,0A.146.146,0,0,1,265.632,501.2Zm1.648-5.988c-2.307.549-5.219,1.318-8.021,2.088v.055l-4.175,1.154c-2.8.769-4.944,1.373-5.384,1.538,1.538,2.362,3.131,4.834,4.34,6.812a11.591,11.591,0,0,0,.989,1.483,19.243,19.243,0,0,0,1.318,1.648,21.068,21.068,0,0,0,1.538,1.593,7.615,7.615,0,0,0,1.7,1.264,4.857,4.857,0,0,0,1.758.659,5.171,5.171,0,0,0,2.692-.439,10.585,10.585,0,0,0,2.088-1.044,9.3,9.3,0,0,0,1.758-1.538,9.187,9.187,0,0,0,1.318-1.923,5.625,5.625,0,0,0,.6-1.483l5-15.382A22.952,22.952,0,0,1,267.28,495.216Zm-.33,11.921a.635.635,0,0,1-.659.659h-8.515a.635.635,0,0,1-.659-.659V500.71a.668.668,0,0,1,.659-.659h8.515a.668.668,0,0,1,.659.659Zm-9.394,0a.175.175,0,0,0,.165.165h8.515a.175.175,0,0,0,.165-.165v-5.384h-8.845Zm5.933-3.9a.272.272,0,1,1,.385-.385l1.373,1.373a.416.416,0,0,1,.11.22c0,.11-.055.165-.11.275l-1.373,1.373a.275.275,0,0,1-.33,0,.266.266,0,0,1,0-.385l1.209-1.209Zm-1.1-.33a.392.392,0,0,1,.33-.165c.165.055.165.22.165.33l-1.209,2.967a.294.294,0,0,1-.22.165h-.11a.391.391,0,0,1-.165-.33Zm-3.406,1.319,1.373-1.373a.272.272,0,0,1,.385.385l-1.264,1.209,1.264,1.209a.265.265,0,0,1,0,.384.274.274,0,0,1-.33,0l-1.373-1.373a.42.42,0,0,1-.11-.275C258.874,504.39,258.929,504.28,258.984,504.226Zm7.307-3.681h-8.515a.175.175,0,0,0-.165.165v.659h8.9v-.659C266.456,500.655,266.4,500.545,266.291,500.545Zm-2.033.659a.146.146,0,0,1-.165-.165.165.165,0,1,1,.33,0A.146.146,0,0,1,264.258,501.2Zm.659,0a.146.146,0,0,1-.165-.165.165.165,0,0,1,.33,0C265.137,501.149,265.027,501.2,264.917,501.2Zm.714,0a.146.146,0,0,1-.165-.165.165.165,0,0,1,.33,0A.146.146,0,0,1,265.632,501.2Zm.659-.659h-8.515a.175.175,0,0,0-.165.165v.659h8.9v-.659C266.456,500.655,266.4,500.545,266.291,500.545Zm-2.033.659a.146.146,0,0,1-.165-.165.165.165,0,1,1,.33,0A.146.146,0,0,1,264.258,501.2Zm.659,0a.146.146,0,0,1-.165-.165.165.165,0,0,1,.33,0C265.137,501.149,265.027,501.2,264.917,501.2Zm.714,0a.146.146,0,0,1-.165-.165.165.165,0,0,1,.33,0A.146.146,0,0,1,265.632,501.2Zm-8.076.6v5.384a.175.175,0,0,0,.165.165h8.515a.175.175,0,0,0,.165-.165v-5.384Zm3.131,3.9a.266.266,0,0,1,0,.385.275.275,0,0,1-.33,0l-1.373-1.373a.419.419,0,0,1-.11-.275.285.285,0,0,1,.11-.22l1.373-1.373a.272.272,0,0,1,.385.385l-1.264,1.209Zm2.2-2.582-1.209,2.967a.294.294,0,0,1-.22.165h-.11a.392.392,0,0,1-.165-.33l1.209-2.967a.391.391,0,0,1,.33-.165C262.885,502.8,262.94,502.962,262.885,503.127Zm2.307,1.648-1.373,1.373a.275.275,0,0,1-.33,0,.265.265,0,0,1,0-.385l1.209-1.209-1.209-1.209a.272.272,0,1,1,.385-.385l1.373,1.373a.417.417,0,0,1,.11.22C265.3,504.61,265.3,504.665,265.192,504.775Zm-7.636-2.967v5.384a.175.175,0,0,0,.165.165h8.515a.175.175,0,0,0,.165-.165v-5.384Zm3.131,3.9a.266.266,0,0,1,0,.385.275.275,0,0,1-.33,0l-1.373-1.373a.419.419,0,0,1-.11-.275.285.285,0,0,1,.11-.22l1.373-1.373a.272.272,0,0,1,.385.385l-1.264,1.209Zm2.2-2.582-1.209,2.967a.294.294,0,0,1-.22.165h-.11a.392.392,0,0,1-.165-.33l1.209-2.967a.391.391,0,0,1,.33-.165C262.885,502.8,262.94,502.962,262.885,503.127Zm2.307,1.648-1.373,1.373a.275.275,0,0,1-.33,0,.265.265,0,0,1,0-.385l1.209-1.209-1.209-1.209a.272.272,0,1,1,.385-.385l1.373,1.373a.417.417,0,0,1,.11.22C265.3,504.61,265.3,504.665,265.192,504.775Zm1.1-4.23h-8.515a.175.175,0,0,0-.165.165v.659h8.9v-.659C266.456,500.655,266.4,500.545,266.291,500.545Zm-2.033.659a.146.146,0,0,1-.165-.165.165.165,0,1,1,.33,0A.146.146,0,0,1,264.258,501.2Zm.659,0a.146.146,0,0,1-.165-.165.165.165,0,0,1,.33,0C265.137,501.149,265.027,501.2,264.917,501.2Zm.714,0a.146.146,0,0,1-.165-.165.165.165,0,0,1,.33,0A.146.146,0,0,1,265.632,501.2Zm.659-.659h-8.515a.175.175,0,0,0-.165.165v.659h8.9v-.659C266.456,500.655,266.4,500.545,266.291,500.545Zm-2.033.659a.146.146,0,0,1-.165-.165.165.165,0,1,1,.33,0A.146.146,0,0,1,264.258,501.2Zm.659,0a.146.146,0,0,1-.165-.165.165.165,0,0,1,.33,0C265.137,501.149,265.027,501.2,264.917,501.2Zm.714,0a.146.146,0,0,1-.165-.165.165.165,0,0,1,.33,0A.146.146,0,0,1,265.632,501.2Zm-8.076.6v5.384a.175.175,0,0,0,.165.165h8.515a.175.175,0,0,0,.165-.165v-5.384Zm3.131,3.9a.266.266,0,0,1,0,.385.275.275,0,0,1-.33,0l-1.373-1.373a.419.419,0,0,1-.11-.275.285.285,0,0,1,.11-.22l1.373-1.373a.272.272,0,0,1,.385.385l-1.264,1.209Zm2.2-2.582-1.209,2.967a.294.294,0,0,1-.22.165h-.11a.392.392,0,0,1-.165-.33l1.209-2.967a.391.391,0,0,1,.33-.165C262.885,502.8,262.94,502.962,262.885,503.127Zm2.307,1.648-1.373,1.373a.275.275,0,0,1-.33,0,.265.265,0,0,1,0-.385l1.209-1.209-1.209-1.209a.272.272,0,1,1,.385-.385l1.373,1.373a.417.417,0,0,1,.11.22C265.3,504.61,265.3,504.665,265.192,504.775Zm-7.636-2.967v5.384a.175.175,0,0,0,.165.165h8.515a.175.175,0,0,0,.165-.165v-5.384Zm3.131,3.9a.266.266,0,0,1,0,.385.275.275,0,0,1-.33,0l-1.373-1.373a.419.419,0,0,1-.11-.275.285.285,0,0,1,.11-.22l1.373-1.373a.272.272,0,0,1,.385.385l-1.264,1.209Zm2.2-2.582-1.209,2.967a.294.294,0,0,1-.22.165h-.11a.392.392,0,0,1-.165-.33l1.209-2.967a.391.391,0,0,1,.33-.165C262.885,502.8,262.94,502.962,262.885,503.127Zm2.307,1.648-1.373,1.373a.275.275,0,0,1-.33,0,.265.265,0,0,1,0-.385l1.209-1.209-1.209-1.209a.272.272,0,1,1,.385-.385l1.373,1.373a.417.417,0,0,1,.11.22C265.3,504.61,265.3,504.665,265.192,504.775Zm1.1-4.23h-8.515a.175.175,0,0,0-.165.165v.659h8.9v-.659C266.456,500.655,266.4,500.545,266.291,500.545Zm-2.033.659a.146.146,0,0,1-.165-.165.165.165,0,1,1,.33,0A.146.146,0,0,1,264.258,501.2Zm.659,0a.146.146,0,0,1-.165-.165.165.165,0,0,1,.33,0C265.137,501.149,265.027,501.2,264.917,501.2Zm.714,0a.146.146,0,0,1-.165-.165.165.165,0,0,1,.33,0A.146.146,0,0,1,265.632,501.2Zm.659-.659h-8.515a.175.175,0,0,0-.165.165v.659h8.9v-.659C266.456,500.655,266.4,500.545,266.291,500.545Zm-2.033.659a.146.146,0,0,1-.165-.165.165.165,0,1,1,.33,0A.146.146,0,0,1,264.258,501.2Zm.659,0a.146.146,0,0,1-.165-.165.165.165,0,0,1,.33,0C265.137,501.149,265.027,501.2,264.917,501.2Zm.714,0a.146.146,0,0,1-.165-.165.165.165,0,0,1,.33,0A.146.146,0,0,1,265.632,501.2Zm-8.076.6v5.384a.175.175,0,0,0,.165.165h8.515a.175.175,0,0,0,.165-.165v-5.384Zm3.131,3.9a.266.266,0,0,1,0,.385.275.275,0,0,1-.33,0l-1.373-1.373a.419.419,0,0,1-.11-.275.285.285,0,0,1,.11-.22l1.373-1.373a.272.272,0,0,1,.385.385l-1.264,1.209Zm2.2-2.582-1.209,2.967a.294.294,0,0,1-.22.165h-.11a.392.392,0,0,1-.165-.33l1.209-2.967a.391.391,0,0,1,.33-.165C262.885,502.8,262.94,502.962,262.885,503.127Zm2.307,1.648-1.373,1.373a.275.275,0,0,1-.33,0,.265.265,0,0,1,0-.385l1.209-1.209-1.209-1.209a.272.272,0,1,1,.385-.385l1.373,1.373a.417.417,0,0,1,.11.22C265.3,504.61,265.3,504.665,265.192,504.775Zm-7.636-2.967v5.384a.175.175,0,0,0,.165.165h8.515a.175.175,0,0,0,.165-.165v-5.384Zm3.131,3.9a.266.266,0,0,1,0,.385.275.275,0,0,1-.33,0l-1.373-1.373a.419.419,0,0,1-.11-.275.285.285,0,0,1,.11-.22l1.373-1.373a.272.272,0,0,1,.385.385l-1.264,1.209Zm2.2-2.582-1.209,2.967a.294.294,0,0,1-.22.165h-.11a.392.392,0,0,1-.165-.33l1.209-2.967a.391.391,0,0,1,.33-.165C262.885,502.8,262.94,502.962,262.885,503.127Zm2.307,1.648-1.373,1.373a.275.275,0,0,1-.33,0,.265.265,0,0,1,0-.385l1.209-1.209-1.209-1.209a.272.272,0,1,1,.385-.385l1.373,1.373a.417.417,0,0,1,.11.22C265.3,504.61,265.3,504.665,265.192,504.775Zm1.1-4.23h-8.515a.175.175,0,0,0-.165.165v.659h8.9v-.659C266.456,500.655,266.4,500.545,266.291,500.545Zm-2.033.659a.146.146,0,0,1-.165-.165.165.165,0,1,1,.33,0A.146.146,0,0,1,264.258,501.2Zm.659,0a.146.146,0,0,1-.165-.165.165.165,0,0,1,.33,0C265.137,501.149,265.027,501.2,264.917,501.2Zm.714,0a.146.146,0,0,1-.165-.165.165.165,0,0,1,.33,0A.146.146,0,0,1,265.632,501.2Zm.659-.659h-8.515a.175.175,0,0,0-.165.165v.659h8.9v-.659C266.456,500.655,266.4,500.545,266.291,500.545Zm-2.033.659a.146.146,0,0,1-.165-.165.165.165,0,1,1,.33,0A.146.146,0,0,1,264.258,501.2Zm.659,0a.146.146,0,0,1-.165-.165.165.165,0,0,1,.33,0C265.137,501.149,265.027,501.2,264.917,501.2Zm.714,0a.146.146,0,0,1-.165-.165.165.165,0,0,1,.33,0A.146.146,0,0,1,265.632,501.2Zm-8.076.6v5.384a.175.175,0,0,0,.165.165h8.515a.175.175,0,0,0,.165-.165v-5.384Zm3.131,3.9a.266.266,0,0,1,0,.385.275.275,0,0,1-.33,0l-1.373-1.373a.419.419,0,0,1-.11-.275.285.285,0,0,1,.11-.22l1.373-1.373a.272.272,0,0,1,.385.385l-1.264,1.209Zm2.2-2.582-1.209,2.967a.294.294,0,0,1-.22.165h-.11a.392.392,0,0,1-.165-.33l1.209-2.967a.391.391,0,0,1,.33-.165C262.885,502.8,262.94,502.962,262.885,503.127Zm2.307,1.648-1.373,1.373a.275.275,0,0,1-.33,0,.265.265,0,0,1,0-.385l1.209-1.209-1.209-1.209a.272.272,0,1,1,.385-.385l1.373,1.373a.417.417,0,0,1,.11.22C265.3,504.61,265.3,504.665,265.192,504.775Zm-7.636-2.967v5.384a.175.175,0,0,0,.165.165h8.515a.175.175,0,0,0,.165-.165v-5.384Zm3.131,3.9a.266.266,0,0,1,0,.385.275.275,0,0,1-.33,0l-1.373-1.373a.419.419,0,0,1-.11-.275.285.285,0,0,1,.11-.22l1.373-1.373a.272.272,0,0,1,.385.385l-1.264,1.209Zm2.2-2.582-1.209,2.967a.294.294,0,0,1-.22.165h-.11a.392.392,0,0,1-.165-.33l1.209-2.967a.391.391,0,0,1,.33-.165C262.885,502.8,262.94,502.962,262.885,503.127Zm2.307,1.648-1.373,1.373a.275.275,0,0,1-.33,0,.265.265,0,0,1,0-.385l1.209-1.209-1.209-1.209a.272.272,0,1,1,.385-.385l1.373,1.373a.417.417,0,0,1,.11.22C265.3,504.61,265.3,504.665,265.192,504.775Zm1.1-4.23h-8.515a.175.175,0,0,0-.165.165v.659h8.9v-.659C266.456,500.655,266.4,500.545,266.291,500.545Zm-2.033.659a.146.146,0,0,1-.165-.165.165.165,0,1,1,.33,0A.146.146,0,0,1,264.258,501.2Zm.659,0a.146.146,0,0,1-.165-.165.165.165,0,0,1,.33,0C265.137,501.149,265.027,501.2,264.917,501.2Zm.714,0a.146.146,0,0,1-.165-.165.165.165,0,0,1,.33,0A.146.146,0,0,1,265.632,501.2Z" transform="translate(-227.571 -466.023)" fill="#39c1f1"/>
        <rect id="XMLID_74_" width="1.318" height="0.494" transform="translate(38.775 23.213)" fill="#183560"/>
        <path id="XMLID_71_" d="M277.92,489.6h3.351a.22.22,0,1,1,0,.44H277.92a.236.236,0,0,1-.22-.22A.2.2,0,0,1,277.92,489.6Z" transform="translate(-240.189 -465.385)" fill="#183560"/>
        <path id="XMLID_68_" d="M280.689,480.3a3.153,3.153,0,0,0,.6,1.1v.055a2.707,2.707,0,0,0-.275.879h-1.044a2.36,2.36,0,0,0-.275-.879V481.4a2.439,2.439,0,0,0,.6-1.1v.824a.234.234,0,0,0,.165.385.236.236,0,0,0,.22-.22c0-.055,0-.11-.11-.165l.11-.824Z" transform="translate(-241.09 -461.254)" fill="#183560"/>
        <circle id="XMLID_65_" cx="0.165" cy="0.165" r="0.165" transform="translate(37.292 17.755)" fill="#183560"/>
        <path id="XMLID_62_" d="M277.83,479.9h0v.33h-.275a.054.054,0,0,1-.055-.055v-.22c0-.055,0-.055.055-.055Z" transform="translate(-240.099 -461.087)" fill="#183560"/>
        <path id="XMLID_59_" d="M281.175,478h0l.055.275c0,.055,0,.055-.055.055H280.9V478Z" transform="translate(-241.631 -460.245)" fill="#183560"/>
        <path id="XMLID_56_" d="M284.155,480.23h0l-.055-.275c0-.055,0-.055.055-.055h.22c.055,0,.055,0,.055.055v.22a.054.054,0,0,1-.055.055Z" transform="translate(-243.073 -461.087)" fill="#183560"/>
        <path id="XMLID_53_" d="M284.83,478.165a.175.175,0,0,1-.165.165.165.165,0,0,1,0-.33A.175.175,0,0,1,284.83,478.165Z" transform="translate(-243.253 -460.245)" fill="#183560"/>
        <path id="XMLID_43_" d="M275.8,477.1v3.846h2.143a1.5,1.5,0,0,0-.275-.769.332.332,0,0,1,.055-.439,2.607,2.607,0,0,0,.549-.989.28.28,0,0,1,.275-.22h.385a.371.371,0,0,1,.33.22,3.135,3.135,0,0,0,.494.989.427.427,0,0,1,.11.439,3.942,3.942,0,0,0-.275.769h2.088V477.1Zm4.889,1.154a.463.463,0,0,1-.385-.22h-.22c.165.055.275.22.385.33h.165a.354.354,0,0,1,.33.33v.275a.308.308,0,0,1-.33.275h-.275a.356.356,0,0,1-.33-.275v-.275a.2.2,0,0,1,.055-.165,1.833,1.833,0,0,0-.934-.44.3.3,0,0,1-.275.165H278.6a.342.342,0,0,1-.275-.165,1.416,1.416,0,0,0-.879.44v.439a.294.294,0,0,1-.275.275H276.9a.356.356,0,0,1-.33-.275v-.275a.355.355,0,0,1,.33-.33h.165a1.153,1.153,0,0,1,.439-.33h-.22a.368.368,0,0,1-.385.22c-.275,0-.439-.165-.439-.494a.433.433,0,0,1,.439-.439.413.413,0,0,1,.385.275h1.1a.308.308,0,0,1,.33-.275h.275a.26.26,0,0,1,.275.275h1.1c.11-.165.22-.275.385-.275a.473.473,0,0,1,.439.439A.58.58,0,0,1,280.689,478.254Z" transform="translate(-239.333 -459.827)" fill="#183560"/>
        <path id="XMLID_33_" d="M281.405,474.6h-7.856a.551.551,0,0,0-.549.549v5.658a.519.519,0,0,0,.549.549h7.8a.551.551,0,0,0,.549-.549v-5.658A.505.505,0,0,0,281.405,474.6Zm-.494,5.658h-6.922v-4.834h6.922Z" transform="translate(-238.071 -458.704)" fill="#183560"/>
        <path id="XMLID_23_" d="M282.4,464.5a10.476,10.476,0,0,0-2.582-2.8,21.682,21.682,0,0,0-2.143-1.593c-3.351-2.417-6.757-4.834-10.108-7.307,1.264,4.065.769,8.46.439,12.745-.22,2.857-.385,5.713-.549,8.57l-.165,4.285c0,.165-.055.33.055.33s.33-.11.494-.11c.275-.11.549-.165.879-.275.6-.165,1.154-.33,1.758-.44,2.362-.6,4.725-1.154,7.032-1.978a20.685,20.685,0,0,0,3.955-2.033,5.212,5.212,0,0,0,1.868-1.923,5.129,5.129,0,0,0,.439-2.417A10.533,10.533,0,0,0,282.4,464.5Zm-2.527,6.482a1.081,1.081,0,0,1-1.044,1.044h-2.967v.549h.714a.61.61,0,0,1,.6.6.66.66,0,0,1-.6.659h-3.351a.635.635,0,0,1-.659-.659.624.624,0,0,1,.659-.6h.714v-.549h-2.967a1.043,1.043,0,0,1-1.044-1.044v-5.659a1.043,1.043,0,0,1,1.044-1.044h7.8a1.081,1.081,0,0,1,1.044,1.044v5.659Z" transform="translate(-235.491 -449.127)" fill="#183560"/>
        <path id="XMLID_17_" d="M223.252,469.683a20.322,20.322,0,0,0-7.636-1.483c-5.219.11-7.142,6.922-5.768,11.207l5,15.327c.055-.22.11-.385.165-.6a20.2,20.2,0,0,1,4.01-7.2c1.593-1.868,3.516-4.23,5.439-6.537h0l5.219-6.428a10.47,10.47,0,0,1,.989-1.209l.11-.11C228.087,471.606,225.395,470.562,223.252,469.683Zm-8.021,11.1a1.97,1.97,0,0,1-1.978-1.978v-3.241a1.97,1.97,0,0,1,1.978-1.978h3.241a1.909,1.909,0,0,1,1.923,1.648,3.586,3.586,0,0,0-.6.659v-.385a1.36,1.36,0,0,0-1.373-1.373h-3.186a1.36,1.36,0,0,0-1.373,1.373v3.241a1.36,1.36,0,0,0,1.373,1.373h2.307l.549.6h-2.857Zm5.274-1.978a2.106,2.106,0,0,1-1.1,1.813l.165-.385a10.458,10.458,0,0,1,.989-2.033Zm1.428-3.021c-1.538.934-2.637,3.461-2.967,4.23l-.165.549-2.472-2.582.33-.879,1.758,2.088c1.264-2.417,2.527-3.9,3.791-4.395Z" transform="translate(-209.419 -455.69)" fill="#138589"/>
      </g>
    </g>
  </g>
</svg>
